<svg xmlns="http://www.w3.org/2000/svg" width="512" height="512" enable-background="new 0 0 512 512" viewBox="0 0 512 512"><path d="M350.752,129.248C325.442,103.938,291.792,90,256,90s-69.442,13.938-94.753,39.248C135.938,154.557,122,188.208,122,224s13.938,69.443,39.247,94.752l8.486-8.485C146.69,287.224,134,256.587,134,224s12.69-63.224,35.732-86.267C192.776,114.69,223.413,102,256,102s63.224,12.69,86.267,35.733C365.31,160.776,378,191.413,378,224c0,22.766-9.481,45.079-26.698,62.829c-15.851,16.342-36.7,27.363-57.202,30.237c-25.232,3.534-44.98-5.51-56.158-25.118c10.349-21.609,18.173-40.81,23.344-57.301c9.343-29.803,10.128-50.678,2.398-63.818c-6.907-11.742-20.518-16.572-32.354-11.498c-6.528,2.8-18.017,11.175-21.608,35.811c-3.118,21.383,0.342,49.854,10.284,84.623c1.248,4.367,2.761,8.473,4.523,12.31c-3.292,6.754-6.515,13.097-9.492,18.805c-27.84,53.37-59.71,101.315-60.028,101.793l9.984,6.656c0.322-0.482,32.504-48.891,60.642-102.819c2.123-4.069,4.171-8.069,6.143-11.997c11.966,16.389,29.996,25.309,51.862,25.307c3.922,0,7.971-0.287,12.126-0.87C341.085,322.598,390,280.667,390,224C390,188.208,376.062,154.557,350.752,129.248z M231.679,276.938c-0.046-0.158-0.091-0.315-0.137-0.473c-9.338-32.657-12.777-60.18-9.947-79.593c2.008-13.769,7.279-23.432,14.464-26.513c1.591-0.683,3.252-1.009,4.906-1.009c4.803,0,9.548,2.756,12.375,7.562C264.274,195.501,248.78,239.491,231.679,276.938z"/></svg>